<svg class="typst-doc" viewBox="0 0 141.7325 141.7325" width="141.7325pt" height="141.7325pt" xmlns="http://www.w3.org/2000/svg" xmlns:xlink="http://www.w3.org/1999/xlink" xmlns:h5="http://www.w3.org/1999/xhtml">
    <g>
        <g transform="translate(16.872916666666665 16.872916666666665)">
            <g class="typst-group">
                <g>
                    <g transform="translate(-9.78629166666667 -1.2414421605117667)">
                        <g class="typst-group">
                            <g>
                                <g transform="translate(95.6694375 0.0000000000000062941873935074)">
                                    <path class="typst-shape" fill="none" stroke="#000000" stroke-width="1.06299375" stroke-linecap="round" stroke-linejoin="miter" stroke-miterlimit="4" d="M 31.889812 55.234776 C 31.889812 55.234776 0 0 0 0 "/>
                                </g>
                                <g transform="translate(31.889812500000012 0)">
                                    <g class="typst-group">
                                        <g>
                                            <g transform="translate(0 0)">
                                                <path class="typst-shape" fill="none" stroke="#000000" stroke-width="1.06299375" stroke-linecap="round" stroke-linejoin="miter" stroke-miterlimit="4" d="M 63.779625 0.0000000000000062941875 C 63.779625 0.0000000000000062941875 0 0 0 0 "/>
                                            </g>
                                        </g>
                                    </g>
                                </g>
                                <g transform="translate(0 0)">
                                    <g class="typst-group">
                                        <g>
                                            <g transform="translate(0 0)">
                                                <path class="typst-shape" fill="none" stroke="#000000" stroke-width="1.06299375" stroke-linecap="round" stroke-linejoin="miter" stroke-miterlimit="4" d="M 31.889812 0 C 31.889812 0 0 55.234776 0 55.234776 "/>
                                            </g>
                                        </g>
                                    </g>
                                </g>
                                <g transform="translate(0 55.23477549384507)">
                                    <g class="typst-group">
                                        <g>
                                            <g transform="translate(0 0)">
                                                <path class="typst-shape" fill="none" stroke="#000000" stroke-width="1.06299375" stroke-linecap="round" stroke-linejoin="miter" stroke-miterlimit="4" d="M 0 0 C 0 0 31.889812 55.234776 31.889812 55.234776 "/>
                                            </g>
                                        </g>
                                    </g>
                                </g>
                                <g transform="translate(31.889812499999973 110.46955098769014)">
                                    <g class="typst-group">
                                        <g>
                                            <g transform="translate(0 0)">
                                                <path class="typst-shape" fill="none" stroke="#000000" stroke-width="1.06299375" stroke-linecap="round" stroke-linejoin="miter" stroke-miterlimit="4" d="M 0 0 C 0 0 63.779625 0.000000000000037765123 63.779625 0.000000000000037765123 "/>
                                            </g>
                                        </g>
                                    </g>
                                </g>
                                <g transform="translate(95.66943749999994 55.23477549384509)">
                                    <g class="typst-group">
                                        <g>
                                            <g transform="translate(0 0)">
                                                <path class="typst-shape" fill="none" stroke="#000000" stroke-width="1.06299375" stroke-linecap="round" stroke-linejoin="miter" stroke-miterlimit="4" d="M 0 55.234776 C 0 55.234776 31.889812 0 31.889812 0 "/>
                                            </g>
                                        </g>
                                    </g>
                                </g>
                                <g transform="translate(49.604008417979216 41.059158965462096)">
                                    <g class="typst-group">
                                        <g>
                                            <g transform="translate(0 0)">
                                                <path class="typst-shape" fill="none" stroke="#000000" stroke-width="1.06299375" stroke-linecap="round" stroke-linejoin="miter" stroke-miterlimit="4" d="M 21.262241 1.901222 C 14.48328 -2.0126128 5.815057 0.31003067 1.901222 7.0889916 C 1.901222 7.0889916 1.901222 7.0889916 1.901222 7.0889916 C -2.0126128 13.867952 0.31003067 22.536177 7.0889916 26.45001 "/>
                                            </g>
                                        </g>
                                    </g>
                                </g>
                                <g transform="translate(77.95287499999999 30.68598638546949)">
                                    <g class="typst-group">
                                        <g>
                                            <g transform="translate(0 0)">
                                                <path class="typst-shape" fill="none" stroke="#000000" stroke-width="1.06299375" stroke-linecap="round" stroke-linejoin="miter" stroke-miterlimit="4" d="M 14.17325 24.54879 C 14.17325 14.42156 8.770437 5.0636144 0 0 "/>
                                            </g>
                                        </g>
                                    </g>
                                </g>
                                <g transform="translate(35.43312499999999 55.234775493845085)">
                                    <g class="typst-group">
                                        <g>
                                            <g transform="translate(0 0)">
                                                <path class="typst-shape" fill="none" stroke="#000000" stroke-width="1.06299375" stroke-linecap="round" stroke-linejoin="miter" stroke-miterlimit="4" d="M 0 0 C 0 10.127229 5.4028125 19.485174 14.17325 24.54879 "/>
                                            </g>
                                        </g>
                                    </g>
                                </g>
                                <g transform="translate(85.0395 55.234775616396696)">
                                    <g class="typst-group">
                                        <g>
                                            <g transform="translate(0 0)">
                                                <path class="typst-shape" fill="none" stroke="#000000" stroke-width="1.06299375" stroke-linecap="round" stroke-linejoin="miter" stroke-miterlimit="4" d="M 0 36.823185 C 13.155657 29.227762 21.259874 15.190844 21.259874 0 "/>
                                            </g>
                                        </g>
                                    </g>
                                </g>
                                <g transform="translate(21.259874999999987 18.411591708730086)">
                                    <g class="typst-group">
                                        <g>
                                            <g transform="translate(0 0)">
                                                <path class="typst-shape" fill="none" stroke="#000000" stroke-width="1.06299375" stroke-linecap="round" stroke-linejoin="miter" stroke-miterlimit="4" d="M 21.259874 0 C 8.1042185 7.595422 0 21.63234 0 36.823185 "/>
                                            </g>
                                        </g>
                                    </g>
                                </g>
                                <g transform="translate(67.3229375 61.37197277093898)">
                                    <g class="typst-group">
                                        <g>
                                            <g transform="translate(0 0)">
                                                <path class="typst-shape" fill="none" stroke="#000000" stroke-width="1.06299375" stroke-linecap="round" stroke-linejoin="miter" stroke-miterlimit="4" d="M 0 0 C 0 0 16.30284 28.237347 16.30284 28.237347 "/>
                                            </g>
                                        </g>
                                    </g>
                                </g>
                                <g transform="translate(94.960775 55.23477549384508)">
                                    <g class="typst-group">
                                        <g>
                                            <g transform="translate(0 0)">
                                                <path class="typst-shape" fill="none" stroke="#000000" stroke-width="1.06299375" stroke-linecap="round" stroke-linejoin="miter" stroke-miterlimit="4" d="M 0 0 C 0 0 8.50395 0 8.50395 0 "/>
                                            </g>
                                        </g>
                                    </g>
                                </g>
                                <g transform="translate(72.27997240878646 6.137197277093902)">
                                    <g class="typst-group">
                                        <g>
                                            <g transform="translate(0 0)">
                                                <path class="typst-shape" fill="none" stroke="#000000" stroke-width="1.06299375" stroke-linecap="round" stroke-linejoin="miter" stroke-miterlimit="4" d="M 0 34.374546 C 0 34.374546 19.846153 0 19.846153 0 "/>
                                            </g>
                                        </g>
                                    </g>
                                </g>
                                <g transform="translate(35.433124999999976 69.9578090878497)">
                                    <g class="typst-group">
                                        <g>
                                            <g transform="translate(0 0)">
                                                <path class="typst-shape" fill="none" stroke="#000000" stroke-width="1.06299375" stroke-linecap="round" stroke-linejoin="miter" stroke-miterlimit="4" d="M 19.846153 0 C 19.846153 0 0 34.374546 0 34.374546 "/>
                                            </g>
                                        </g>
                                    </g>
                                </g>
                                <g transform="translate(24.094525 55.23477549384507)">
                                    <g class="typst-group">
                                        <g>
                                            <g transform="translate(0 0)">
                                                <path class="typst-shape" fill="none" stroke="#000000" stroke-width="1.06299375" stroke-linecap="round" stroke-linejoin="miter" stroke-miterlimit="4" d="M 8.50395 0 C 8.50395 0 0 0 0 0 "/>
                                            </g>
                                        </g>
                                    </g>
                                </g>
                                <g transform="translate(43.933472379499676 20.860230820372294)">
                                    <g class="typst-group">
                                        <g>
                                            <g transform="translate(0 0)">
                                                <path class="typst-shape" fill="none" stroke="#000000" stroke-width="1.06299375" stroke-linecap="round" stroke-linejoin="miter" stroke-miterlimit="4" d="M 16.30284 28.237347 C 16.30284 28.237347 0 0 0 0 "/>
                                            </g>
                                        </g>
                                    </g>
                                </g>
                                <g transform="translate(85.22578302824436 95.21526082591548)">
                                    <g class="typst-group">
                                        <g>
                                            <g transform="translate(0 0)">
                                                <path class="typst-shape" fill="none" stroke="#000000" stroke-width="1.06299375" stroke-linecap="round" stroke-linejoin="miter" stroke-miterlimit="4" d="M 0 0 C 0 0 5.6729026 9.825755 5.6729026 9.825755 "/>
                                            </g>
                                        </g>
                                    </g>
                                </g>
                                <g transform="translate(87.68066193908193 93.79793582591549)">
                                    <g class="typst-group">
                                        <g>
                                            <g transform="translate(0 0)">
                                                <path class="typst-shape" fill="none" stroke="#000000" stroke-width="1.06299375" stroke-linecap="round" stroke-linejoin="miter" stroke-miterlimit="4" d="M 0 0 C 0 0 5.6729026 9.825755 5.6729026 9.825755 "/>
                                            </g>
                                        </g>
                                    </g>
                                </g>
                                <g transform="translate(109.134025 56.652100493845076)">
                                    <g class="typst-group">
                                        <g>
                                            <g transform="translate(0 0)">
                                                <path class="typst-shape" fill="none" stroke="#000000" stroke-width="1.06299375" stroke-linecap="round" stroke-linejoin="miter" stroke-miterlimit="4" d="M 0 0 C 0 0 11.3386 0 11.3386 0 "/>
                                            </g>
                                        </g>
                                    </g>
                                </g>
                                <g transform="translate(109.134025 53.81745049384507)">
                                    <g class="typst-group">
                                        <g>
                                            <g transform="translate(0 0)">
                                                <path class="typst-shape" fill="none" stroke="#000000" stroke-width="1.06299375" stroke-linecap="round" stroke-linejoin="miter" stroke-miterlimit="4" d="M 0 0 C 0 0 11.3386 0 11.3386 0 "/>
                                            </g>
                                        </g>
                                    </g>
                                </g>
                                <g transform="translate(7.086625 53.81745049384507)">
                                    <g class="typst-group">
                                        <g>
                                            <g transform="translate(0 0)">
                                                <path class="typst-shape" fill="none" stroke="#000000" stroke-width="1.06299375" stroke-linecap="round" stroke-linejoin="miter" stroke-miterlimit="4" d="M 11.3386 0 C 11.3386 0 0 0 0 0 "/>
                                            </g>
                                        </g>
                                    </g>
                                </g>
                                <g transform="translate(7.086625 56.65210049384507)">
                                    <g class="typst-group">
                                        <g>
                                            <g transform="translate(0 0)">
                                                <path class="typst-shape" fill="none" stroke="#000000" stroke-width="1.06299375" stroke-linecap="round" stroke-linejoin="miter" stroke-miterlimit="4" d="M 11.3386 0 C 11.3386 0 0 0 0 0 "/>
                                            </g>
                                        </g>
                                    </g>
                                </g>
                                <g transform="translate(36.66056445541879 5.428534777093898)">
                                    <g class="typst-group">
                                        <g>
                                            <g transform="translate(0 0)">
                                                <path class="typst-shape" fill="none" stroke="#000000" stroke-width="1.06299375" stroke-linecap="round" stroke-linejoin="miter" stroke-miterlimit="4" d="M 5.6729026 9.825755 C 5.6729026 9.825755 0 0 0 0 "/>
                                            </g>
                                        </g>
                                    </g>
                                </g>
                                <g transform="translate(34.20568554458123 6.845859777093893)">
                                    <g class="typst-group">
                                        <g>
                                            <g transform="translate(0 0)">
                                                <path class="typst-shape" fill="none" stroke="#000000" stroke-width="1.06299375" stroke-linecap="round" stroke-linejoin="miter" stroke-miterlimit="4" d="M 5.6729026 9.825755 C 5.6729026 9.825755 0 0 0 0 "/>
                                            </g>
                                        </g>
                                    </g>
                                </g>
                                <g transform="translate(63.779624999999996 55.23477549384508)">
                                    <g class="typst-group">
                                        <g>
                                            <g transform="translate(0 0)">
                                                <path class="typst-shape" fill="none" stroke="#000000" stroke-width="1.06299375" stroke-linecap="butt" stroke-linejoin="miter" stroke-miterlimit="4" d="M 0 0 C 0 0 0 0 0 0 C 0 0 0 0 0 0 C 0 0 0 0 0 0 C 0 0 0 0 0 0 C 0 0 0 0 0 0 C 0 0 0 0 0 0 C 0 0 0 0 0 0 C 0 0 0 0 0 0 Z "/>
                                            </g>
                                        </g>
                                    </g>
                                </g>
                                <g transform="translate(73.27706581687183 73.81081307841191)">
                                    <g class="typst-group">
                                        <g>
                                            <g transform="translate(0 0)">
                                                <path class="typst-shape" fill="#ffffff" stroke="#000000" stroke-width="1.06299375" stroke-linecap="butt" stroke-linejoin="miter" stroke-miterlimit="4" d="M 5.8083057 3.6823184 C 5.8083057 3.6823184 3.6823184 0 3.6823184 0 C 3.6823184 0 0 2.1259875 0 2.1259875 C 0 2.1259875 2.1259875 5.8083057 2.1259875 5.8083057 C 2.1259875 5.8083057 2.1259875 5.8083057 2.1259875 5.8083057 C 2.1259875 5.8083057 5.8083057 3.6823184 5.8083057 3.6823184 C 5.8083057 3.6823184 5.8083057 3.6823184 5.8083057 3.6823184 Z "/>
                                            </g>
                                        </g>
                                    </g>
                                </g>
                                <g transform="translate(68.0316 40.12573099329508)">
                                    <g class="typst-group">
                                        <g>
                                            <g transform="translate(0 0)">
                                                <path class="typst-shape" fill="#000000" stroke="#000000" stroke-width="1.06299375" stroke-linecap="butt" stroke-linejoin="miter" stroke-miterlimit="4" d="M 2.83465 0 C 4.3987646 0 5.6693 1.2705355 5.6693 2.83465 C 5.6693 2.83465 5.6693 2.83465 5.6693 2.83465 C 5.6693 4.3987646 4.3987646 5.6693 2.83465 5.6693 C 2.83465 5.6693 2.83465 5.6693 2.83465 5.6693 C 1.2705355 5.6693 0 4.3987646 0 2.83465 C 0 2.83465 0 2.83465 0 2.83465 C 0 1.2705355 1.2705355 0 2.83465 0 C 2.83465 0 2.83465 0 2.83465 0 Z "/>
                                            </g>
                                        </g>
                                    </g>
                                </g>
                                <g transform="translate(53.858349999999994 64.67451999439507)">
                                    <g class="typst-group">
                                        <g>
                                            <g transform="translate(0 0)">
                                                <path class="typst-shape" fill="#ffffff" stroke="#000000" stroke-width="1.06299375" stroke-linecap="butt" stroke-linejoin="miter" stroke-miterlimit="4" d="M 2.83465 0 C 4.3987646 0 5.6693 1.2705355 5.6693 2.83465 C 5.6693 2.83465 5.6693 2.83465 5.6693 2.83465 C 5.6693 4.3987646 4.3987646 5.6693 2.83465 5.6693 C 2.83465 5.6693 2.83465 5.6693 2.83465 5.6693 C 1.2705355 5.6693 0 4.3987646 0 2.83465 C 0 2.83465 0 2.83465 0 2.83465 C 0 1.2705355 1.2705355 0 2.83465 0 C 2.83465 0 2.83465 0 2.83465 0 Z "/>
                                            </g>
                                        </g>
                                    </g>
                                </g>
                                <g transform="translate(89.29147499999999 52.400125493845074)">
                                    <g class="typst-group">
                                        <g>
                                            <g transform="translate(0 0)">
                                                <path class="typst-shape" fill="#ffffff" stroke="#000000" stroke-width="1.06299375" stroke-linecap="butt" stroke-linejoin="miter" stroke-miterlimit="4" d="M 2.83465 0 C 4.3987646 0 5.6693 1.2705355 5.6693 2.83465 C 5.6693 2.83465 5.6693 2.83465 5.6693 2.83465 C 5.6693 4.3987646 4.3987646 5.6693 2.83465 5.6693 C 2.83465 5.6693 2.83465 5.6693 2.83465 5.6693 C 1.2705355 5.6693 0 4.3987646 0 2.83465 C 0 2.83465 0 2.83465 0 2.83465 C 0 1.2705355 1.2705355 0 2.83465 0 C 2.83465 0 2.83465 0 2.83465 0 Z "/>
                                            </g>
                                        </g>
                                    </g>
                                </g>
                                <g transform="translate(75.118225 27.85133649274508)">
                                    <g class="typst-group">
                                        <g>
                                            <g transform="translate(0 0)">
                                                <path class="typst-shape" fill="#000000" stroke="#000000" stroke-width="1.06299375" stroke-linecap="butt" stroke-linejoin="miter" stroke-miterlimit="4" d="M 2.83465 0 C 4.3987646 0 5.6693 1.2705355 5.6693 2.83465 C 5.6693 2.83465 5.6693 2.83465 5.6693 2.83465 C 5.6693 4.3987646 4.3987646 5.6693 2.83465 5.6693 C 2.83465 5.6693 2.83465 5.6693 2.83465 5.6693 C 1.2705355 5.6693 0 4.3987646 0 2.83465 C 0 2.83465 0 2.83465 0 2.83465 C 0 1.2705355 1.2705355 0 2.83465 0 C 2.83465 0 2.83465 0 2.83465 0 Z "/>
                                            </g>
                                        </g>
                                    </g>
                                </g>
                                <g transform="translate(32.59847499999999 52.400125493845074)">
                                    <g class="typst-group">
                                        <g>
                                            <g transform="translate(0 0)">
                                                <path class="typst-shape" fill="#ffffff" stroke="#000000" stroke-width="1.06299375" stroke-linecap="butt" stroke-linejoin="miter" stroke-miterlimit="4" d="M 2.83465 0 C 4.3987646 0 5.6693 1.2705355 5.6693 2.83465 C 5.6693 2.83465 5.6693 2.83465 5.6693 2.83465 C 5.6693 4.3987646 4.3987646 5.6693 2.83465 5.6693 C 2.83465 5.6693 2.83465 5.6693 2.83465 5.6693 C 1.2705355 5.6693 0 4.3987646 0 2.83465 C 0 2.83465 0 2.83465 0 2.83465 C 0 1.2705355 1.2705355 0 2.83465 0 C 2.83465 0 2.83465 0 2.83465 0 Z "/>
                                            </g>
                                        </g>
                                    </g>
                                </g>
                                <g transform="translate(46.771724999999996 76.94891449494509)">
                                    <g class="typst-group">
                                        <g>
                                            <g transform="translate(0 0)">
                                                <path class="typst-shape" fill="#ffffff" stroke="#000000" stroke-width="1.06299375" stroke-linecap="butt" stroke-linejoin="miter" stroke-miterlimit="4" d="M 2.83465 0 C 4.3987646 0 5.6693 1.2705355 5.6693 2.83465 C 5.6693 2.83465 5.6693 2.83465 5.6693 2.83465 C 5.6693 4.3987646 4.3987646 5.6693 2.83465 5.6693 C 2.83465 5.6693 2.83465 5.6693 2.83465 5.6693 C 1.2705355 5.6693 0 4.3987646 0 2.83465 C 0 2.83465 0 2.83465 0 2.83465 C 0 1.2705355 1.2705355 0 2.83465 0 C 2.83465 0 2.83465 0 2.83465 0 Z "/>
                                            </g>
                                        </g>
                                    </g>
                                </g>
                                <g transform="translate(36.32668306577183 66.5038725607169)">
                                    <g class="typst-group">
                                        <g>
                                            <g transform="translate(0 0)">
                                                <path class="typst-shape" fill="#ffffff" stroke="#000000" stroke-width="1.06299375" stroke-linecap="butt" stroke-linejoin="miter" stroke-miterlimit="4" d="M 2.1259875 5.8083057 C 2.1259875 5.8083057 5.8083057 3.6823184 5.8083057 3.6823184 C 5.8083057 3.6823184 3.6823184 0 3.6823184 0 C 3.6823184 0 0 2.1259875 0 2.1259875 C 0 2.1259875 0 2.1259875 0 2.1259875 C 0 2.1259875 2.1259875 5.8083057 2.1259875 5.8083057 C 2.1259875 5.8083057 2.1259875 5.8083057 2.1259875 5.8083057 Z "/>
                                            </g>
                                        </g>
                                    </g>
                                </g>
                                <g transform="translate(82.20485 89.22330927896007)">
                                    <g class="typst-group">
                                        <g>
                                            <g transform="translate(0 0)">
                                                <path class="typst-shape" fill="#000000" stroke="#000000" stroke-width="1.06299375" stroke-linecap="butt" stroke-linejoin="miter" stroke-miterlimit="4" d="M 2.83465 0 C 4.3987646 0 5.6693 1.2705355 5.6693 2.83465 C 5.6693 2.83465 5.6693 2.83465 5.6693 2.83465 C 5.6693 4.3987646 4.3987646 5.6693 2.83465 5.6693 C 2.83465 5.6693 2.83465 5.6693 2.83465 5.6693 C 1.2705355 5.6693 0 4.3987646 0 2.83465 C 0 2.83465 0 2.83465 0 2.83465 C 0 1.2705355 1.2705355 0 2.83465 0 C 2.83465 0 2.83465 0 2.83465 0 Z "/>
                                            </g>
                                        </g>
                                    </g>
                                </g>
                                <g transform="translate(103.46472499999999 52.400125493845074)">
                                    <g class="typst-group">
                                        <g>
                                            <g transform="translate(0 0)">
                                                <path class="typst-shape" fill="#000000" stroke="#000000" stroke-width="1.06299375" stroke-linecap="butt" stroke-linejoin="miter" stroke-miterlimit="4" d="M 2.83465 0 C 4.3987646 0 5.6693 1.2705355 5.6693 2.83465 C 5.6693 2.83465 5.6693 2.83465 5.6693 2.83465 C 5.6693 4.3987646 4.3987646 5.6693 2.83465 5.6693 C 2.83465 5.6693 2.83465 5.6693 2.83465 5.6693 C 1.2705355 5.6693 0 4.3987646 0 2.83465 C 0 2.83465 0 2.83465 0 2.83465 C 0 1.2705355 1.2705355 0 2.83465 0 C 2.83465 0 2.83465 0 2.83465 0 Z "/>
                                            </g>
                                        </g>
                                    </g>
                                </g>
                                <g transform="translate(97.69865585198683 73.5904975607169)">
                                    <g class="typst-group">
                                        <g>
                                            <g transform="translate(0 0)">
                                                <path class="typst-shape" fill="#ffffff" stroke="#000000" stroke-width="1.06299375" stroke-linecap="butt" stroke-linejoin="miter" stroke-miterlimit="4" d="M 5.8083057 2.1259875 C 5.8083057 2.1259875 2.1259875 0 2.1259875 0 C 2.1259875 0 0 3.6823184 0 3.6823184 C 0 3.6823184 3.6823184 5.8083057 3.6823184 5.8083057 C 3.6823184 5.8083057 3.6823184 5.8083057 3.6823184 5.8083057 C 3.6823184 5.8083057 5.8083057 2.1259875 5.8083057 2.1259875 C 5.8083057 2.1259875 5.8083057 2.1259875 5.8083057 2.1259875 Z "/>
                                            </g>
                                        </g>
                                    </g>
                                </g>
                                <g transform="translate(39.6851 15.576941708730079)">
                                    <g class="typst-group">
                                        <g>
                                            <g transform="translate(0 0)">
                                                <path class="typst-shape" fill="#000000" stroke="#000000" stroke-width="1.06299375" stroke-linecap="butt" stroke-linejoin="miter" stroke-miterlimit="4" d="M 2.83465 0 C 4.3987646 0 5.6693 1.2705355 5.6693 2.83465 C 5.6693 2.83465 5.6693 2.83465 5.6693 2.83465 C 5.6693 4.3987646 4.3987646 5.6693 2.83465 5.6693 C 2.83465 5.6693 2.83465 5.6693 2.83465 5.6693 C 1.2705355 5.6693 0 4.3987646 0 2.83465 C 0 2.83465 0 2.83465 0 2.83465 C 0 1.2705355 1.2705355 0 2.83465 0 C 2.83465 0 2.83465 0 2.83465 0 Z "/>
                                            </g>
                                        </g>
                                    </g>
                                </g>
                                <g transform="translate(18.425224999999998 52.400125493845074)">
                                    <g class="typst-group">
                                        <g>
                                            <g transform="translate(0 0)">
                                                <path class="typst-shape" fill="#000000" stroke="#000000" stroke-width="1.06299375" stroke-linecap="butt" stroke-linejoin="miter" stroke-miterlimit="4" d="M 2.83465 0 C 4.3987646 0 5.6693 1.2705355 5.6693 2.83465 C 5.6693 2.83465 5.6693 2.83465 5.6693 2.83465 C 5.6693 4.3987646 4.3987646 5.6693 2.83465 5.6693 C 2.83465 5.6693 2.83465 5.6693 2.83465 5.6693 C 1.2705355 5.6693 0 4.3987646 0 2.83465 C 0 2.83465 0 2.83465 0 2.83465 C 0 1.2705355 1.2705355 0 2.83465 0 C 2.83465 0 2.83465 0 2.83465 0 Z "/>
                                            </g>
                                        </g>
                                    </g>
                                </g>
                                <g transform="translate(24.052288281756834 31.07074756071691)">
                                    <g class="typst-group">
                                        <g>
                                            <g transform="translate(0 0)">
                                                <path class="typst-shape" fill="#ffffff" stroke="#000000" stroke-width="1.06299375" stroke-linecap="butt" stroke-linejoin="miter" stroke-miterlimit="4" d="M 0 3.6823184 C 0 3.6823184 3.6823184 5.8083057 3.6823184 5.8083057 C 3.6823184 5.8083057 5.8083057 2.1259875 5.8083057 2.1259875 C 5.8083057 2.1259875 2.1259875 0 2.1259875 0 C 2.1259875 0 2.1259875 0 2.1259875 0 C 2.1259875 0 0 3.6823184 0 3.6823184 C 0 3.6823184 0 3.6823184 0 3.6823184 Z "/>
                                            </g>
                                        </g>
                                    </g>
                                </g>
                            </g>
                        </g>
                    </g>
                </g>
            </g>
        </g>
    </g>
</svg>
