<svg class="typst-doc" viewBox="0 0 141.7325 141.7325" width="512" height="512" xmlns="http://www.w3.org/2000/svg" xmlns:xlink="http://www.w3.org/1999/xlink" xmlns:h5="http://www.w3.org/1999/xhtml">
  <rect
     style="fill:#FEFFF4;fill-opacity:1"
     id="rect917"
     width="512"
     height="512"
     x="0"
     y="0" />
    <g>
    <g>
        <g transform="translate(16.872916666666665 21.060009283248814)">
            <g class="typst-group">
                <g>
                    <g transform="translate(-2.6996666666666727 0)">
                        <g class="typst-group">
                            <g>
                                <g transform="translate(42.51738341797922 35.6306241883682)">
                                    <path class="typst-shape" fill="none" stroke="#000000" stroke-width="1.06299375" stroke-linecap="round" stroke-linejoin="miter" stroke-miterlimit="4" d="M 21.262241 1.901222 C 14.48328 -2.0126128 5.815057 0.31003067 1.901222 7.0889916 C 1.901222 7.0889916 1.901222 7.0889916 1.901222 7.0889916 C -2.0126128 13.867952 0.31003067 22.536177 7.0889916 26.45001 "/>
                                </g>
                                <g transform="translate(70.86625 25.257451608375593)">
                                    <g class="typst-group">
                                        <g>
                                            <g transform="translate(0 0)">
                                                <path class="typst-shape" fill="none" stroke="#000000" stroke-width="1.06299375" stroke-linecap="round" stroke-linejoin="miter" stroke-miterlimit="4" d="M 14.17325 24.54879 C 14.17325 14.42156 8.770437 5.0636144 0 0 "/>
                                            </g>
                                        </g>
                                    </g>
                                </g>
                                <g transform="translate(28.346499999999992 49.806240716751184)">
                                    <g class="typst-group">
                                        <g>
                                            <g transform="translate(0 0)">
                                                <path class="typst-shape" fill="none" stroke="#000000" stroke-width="1.06299375" stroke-linecap="round" stroke-linejoin="miter" stroke-miterlimit="4" d="M 0 0 C 0 10.127229 5.4028125 19.485174 14.17325 24.54879 "/>
                                            </g>
                                        </g>
                                    </g>
                                </g>
                                <g transform="translate(77.95287499999999 49.806240839302795)">
                                    <g class="typst-group">
                                        <g>
                                            <g transform="translate(0 0)">
                                                <path class="typst-shape" fill="none" stroke="#000000" stroke-width="1.06299375" stroke-linecap="round" stroke-linejoin="miter" stroke-miterlimit="4" d="M 0 36.823185 C 13.155657 29.227762 21.259874 15.190844 21.259874 0 "/>
                                            </g>
                                        </g>
                                    </g>
                                </g>
                                <g transform="translate(14.173249999999987 12.98305693163619)">
                                    <g class="typst-group">
                                        <g>
                                            <g transform="translate(0 0)">
                                                <path class="typst-shape" fill="none" stroke="#000000" stroke-width="1.06299375" stroke-linecap="round" stroke-linejoin="miter" stroke-miterlimit="4" d="M 21.259874 0 C 8.1042185 7.595422 0 21.63234 0 36.823185 "/>
                                            </g>
                                        </g>
                                    </g>
                                </g>
                                <g transform="translate(60.2363125 55.94343799384507)">
                                    <g class="typst-group">
                                        <g>
                                            <g transform="translate(0 0)">
                                                <path class="typst-shape" fill="none" stroke="#000000" stroke-width="1.06299375" stroke-linecap="round" stroke-linejoin="miter" stroke-miterlimit="4" d="M 0 0 C 0 0 16.30284 28.237347 16.30284 28.237347 "/>
                                            </g>
                                        </g>
                                    </g>
                                </g>
                                <g transform="translate(87.87415 49.80624071675118)">
                                    <g class="typst-group">
                                        <g>
                                            <g transform="translate(0 0)">
                                                <path class="typst-shape" fill="none" stroke="#000000" stroke-width="1.06299375" stroke-linecap="round" stroke-linejoin="miter" stroke-miterlimit="4" d="M 0 0 C 0 0 8.50395 0 8.50395 0 "/>
                                            </g>
                                        </g>
                                    </g>
                                </g>
                                <g transform="translate(65.19334740878647 0.7086625000000037)">
                                    <g class="typst-group">
                                        <g>
                                            <g transform="translate(0 0)">
                                                <path class="typst-shape" fill="none" stroke="#000000" stroke-width="1.06299375" stroke-linecap="round" stroke-linejoin="miter" stroke-miterlimit="4" d="M 0 34.374546 C 0 34.374546 19.846153 0 19.846153 0 "/>
                                            </g>
                                        </g>
                                    </g>
                                </g>
                                <g transform="translate(28.346499999999974 64.5292743107558)">
                                    <g class="typst-group">
                                        <g>
                                            <g transform="translate(0 0)">
                                                <path class="typst-shape" fill="none" stroke="#000000" stroke-width="1.06299375" stroke-linecap="round" stroke-linejoin="miter" stroke-miterlimit="4" d="M 19.846153 0 C 19.846153 0 0 34.374546 0 34.374546 "/>
                                            </g>
                                        </g>
                                    </g>
                                </g>
                                <g transform="translate(17.007900000000003 49.80624071675118)">
                                    <g class="typst-group">
                                        <g>
                                            <g transform="translate(0 0)">
                                                <path class="typst-shape" fill="none" stroke="#000000" stroke-width="1.06299375" stroke-linecap="round" stroke-linejoin="miter" stroke-miterlimit="4" d="M 8.50395 0 C 8.50395 0 0 0 0 0 "/>
                                            </g>
                                        </g>
                                    </g>
                                </g>
                                <g transform="translate(36.84684737949968 15.431696043278397)">
                                    <g class="typst-group">
                                        <g>
                                            <g transform="translate(0 0)">
                                                <path class="typst-shape" fill="none" stroke="#000000" stroke-width="1.06299375" stroke-linecap="round" stroke-linejoin="miter" stroke-miterlimit="4" d="M 16.30284 28.237347 C 16.30284 28.237347 0 0 0 0 "/>
                                            </g>
                                        </g>
                                    </g>
                                </g>
                                <g transform="translate(78.13915802824437 89.78672604882158)">
                                    <g class="typst-group">
                                        <g>
                                            <g transform="translate(0 0)">
                                                <path class="typst-shape" fill="none" stroke="#000000" stroke-width="1.06299375" stroke-linecap="round" stroke-linejoin="miter" stroke-miterlimit="4" d="M 0 0 C 0 0 5.6729026 9.825755 5.6729026 9.825755 "/>
                                            </g>
                                        </g>
                                    </g>
                                </g>
                                <g transform="translate(80.59403693908193 88.36940104882159)">
                                    <g class="typst-group">
                                        <g>
                                            <g transform="translate(0 0)">
                                                <path class="typst-shape" fill="none" stroke="#000000" stroke-width="1.06299375" stroke-linecap="round" stroke-linejoin="miter" stroke-miterlimit="4" d="M 0 0 C 0 0 5.6729026 9.825755 5.6729026 9.825755 "/>
                                            </g>
                                        </g>
                                    </g>
                                </g>
                                <g transform="translate(102.0474 51.22356571675118)">
                                    <g class="typst-group">
                                        <g>
                                            <g transform="translate(0 0)">
                                                <path class="typst-shape" fill="none" stroke="#000000" stroke-width="1.06299375" stroke-linecap="round" stroke-linejoin="miter" stroke-miterlimit="4" d="M 0 0 C 0 0 11.3386 0 11.3386 0 "/>
                                            </g>
                                        </g>
                                    </g>
                                </g>
                                <g transform="translate(102.0474 48.38891571675118)">
                                    <g class="typst-group">
                                        <g>
                                            <g transform="translate(0 0)">
                                                <path class="typst-shape" fill="none" stroke="#000000" stroke-width="1.06299375" stroke-linecap="round" stroke-linejoin="miter" stroke-miterlimit="4" d="M 0 0 C 0 0 11.3386 0 11.3386 0 "/>
                                            </g>
                                        </g>
                                    </g>
                                </g>
                                <g transform="translate(0 48.38891571675117)">
                                    <g class="typst-group">
                                        <g>
                                            <g transform="translate(0 0)">
                                                <path class="typst-shape" fill="none" stroke="#000000" stroke-width="1.06299375" stroke-linecap="round" stroke-linejoin="miter" stroke-miterlimit="4" d="M 11.3386 0 C 11.3386 0 0 0 0 0 "/>
                                            </g>
                                        </g>
                                    </g>
                                </g>
                                <g transform="translate(0 51.223565716751175)">
                                    <g class="typst-group">
                                        <g>
                                            <g transform="translate(0 0)">
                                                <path class="typst-shape" fill="none" stroke="#000000" stroke-width="1.06299375" stroke-linecap="round" stroke-linejoin="miter" stroke-miterlimit="4" d="M 11.3386 0 C 11.3386 0 0 0 0 0 "/>
                                            </g>
                                        </g>
                                    </g>
                                </g>
                                <g transform="translate(29.573939455418795 0)">
                                    <g class="typst-group">
                                        <g>
                                            <g transform="translate(0 0)">
                                                <path class="typst-shape" fill="none" stroke="#000000" stroke-width="1.06299375" stroke-linecap="round" stroke-linejoin="miter" stroke-miterlimit="4" d="M 5.6729026 9.825755 C 5.6729026 9.825755 0 0 0 0 "/>
                                            </g>
                                        </g>
                                    </g>
                                </g>
                                <g transform="translate(27.11906054458123 1.4173249999999948)">
                                    <g class="typst-group">
                                        <g>
                                            <g transform="translate(0 0)">
                                                <path class="typst-shape" fill="none" stroke="#000000" stroke-width="1.06299375" stroke-linecap="round" stroke-linejoin="miter" stroke-miterlimit="4" d="M 5.6729026 9.825755 C 5.6729026 9.825755 0 0 0 0 "/>
                                            </g>
                                        </g>
                                    </g>
                                </g>
                                <g transform="translate(56.693 49.80624071675118)">
                                    <g class="typst-group">
                                        <g>
                                            <g transform="translate(0 0)">
                                                <path class="typst-shape" fill="none" stroke="#000000" stroke-width="1.06299375" stroke-linecap="butt" stroke-linejoin="miter" stroke-miterlimit="4" d="M 0 0 C 0 0 0 0 0 0 C 0 0 0 0 0 0 C 0 0 0 0 0 0 C 0 0 0 0 0 0 C 0 0 0 0 0 0 C 0 0 0 0 0 0 C 0 0 0 0 0 0 C 0 0 0 0 0 0 Z "/>
                                            </g>
                                        </g>
                                    </g>
                                </g>
                                <g transform="translate(66.19044081687183 68.38227830131801)">
                                    <g class="typst-group">
                                        <g>
                                            <g transform="translate(0 0)">
                                                <path class="typst-shape" fill="#ffffff" stroke="#000000" stroke-width="1.06299375" stroke-linecap="butt" stroke-linejoin="miter" stroke-miterlimit="4" d="M 5.8083057 3.6823184 C 5.8083057 3.6823184 3.6823184 0 3.6823184 0 C 3.6823184 0 0 2.1259875 0 2.1259875 C 0 2.1259875 2.1259875 5.8083057 2.1259875 5.8083057 C 2.1259875 5.8083057 2.1259875 5.8083057 2.1259875 5.8083057 C 2.1259875 5.8083057 5.8083057 3.6823184 5.8083057 3.6823184 C 5.8083057 3.6823184 5.8083057 3.6823184 5.8083057 3.6823184 Z "/>
                                            </g>
                                        </g>
                                    </g>
                                </g>
                                <g transform="translate(60.94497499999999 34.69719621620118)">
                                    <g class="typst-group">
                                        <g>
                                            <g transform="translate(0 0)">
                                                <path class="typst-shape" fill="#000000" stroke="#000000" stroke-width="1.06299375" stroke-linecap="butt" stroke-linejoin="miter" stroke-miterlimit="4" d="M 2.83465 0 C 4.3987646 0 5.6693 1.2705355 5.6693 2.83465 C 5.6693 2.83465 5.6693 2.83465 5.6693 2.83465 C 5.6693 4.3987646 4.3987646 5.6693 2.83465 5.6693 C 2.83465 5.6693 2.83465 5.6693 2.83465 5.6693 C 1.2705355 5.6693 0 4.3987646 0 2.83465 C 0 2.83465 0 2.83465 0 2.83465 C 0 1.2705355 1.2705355 0 2.83465 0 C 2.83465 0 2.83465 0 2.83465 0 Z "/>
                                            </g>
                                        </g>
                                    </g>
                                </g>
                                <g transform="translate(46.771724999999996 59.24598521730118)">
                                    <g class="typst-group">
                                        <g>
                                            <g transform="translate(0 0)">
                                                <path class="typst-shape" fill="#ffffff" stroke="#000000" stroke-width="1.06299375" stroke-linecap="butt" stroke-linejoin="miter" stroke-miterlimit="4" d="M 2.83465 0 C 4.3987646 0 5.6693 1.2705355 5.6693 2.83465 C 5.6693 2.83465 5.6693 2.83465 5.6693 2.83465 C 5.6693 4.3987646 4.3987646 5.6693 2.83465 5.6693 C 2.83465 5.6693 2.83465 5.6693 2.83465 5.6693 C 1.2705355 5.6693 0 4.3987646 0 2.83465 C 0 2.83465 0 2.83465 0 2.83465 C 0 1.2705355 1.2705355 0 2.83465 0 C 2.83465 0 2.83465 0 2.83465 0 Z "/>
                                            </g>
                                        </g>
                                    </g>
                                </g>
                                <g transform="translate(82.20485 46.97159071675118)">
                                    <g class="typst-group">
                                        <g>
                                            <g transform="translate(0 0)">
                                                <path class="typst-shape" fill="#ffffff" stroke="#000000" stroke-width="1.06299375" stroke-linecap="butt" stroke-linejoin="miter" stroke-miterlimit="4" d="M 2.83465 0 C 4.3987646 0 5.6693 1.2705355 5.6693 2.83465 C 5.6693 2.83465 5.6693 2.83465 5.6693 2.83465 C 5.6693 4.3987646 4.3987646 5.6693 2.83465 5.6693 C 2.83465 5.6693 2.83465 5.6693 2.83465 5.6693 C 1.2705355 5.6693 0 4.3987646 0 2.83465 C 0 2.83465 0 2.83465 0 2.83465 C 0 1.2705355 1.2705355 0 2.83465 0 C 2.83465 0 2.83465 0 2.83465 0 Z "/>
                                            </g>
                                        </g>
                                    </g>
                                </g>
                                <g transform="translate(68.0316 22.422801715651183)">
                                    <g class="typst-group">
                                        <g>
                                            <g transform="translate(0 0)">
                                                <path class="typst-shape" fill="#000000" stroke="#000000" stroke-width="1.06299375" stroke-linecap="butt" stroke-linejoin="miter" stroke-miterlimit="4" d="M 2.83465 0 C 4.3987646 0 5.6693 1.2705355 5.6693 2.83465 C 5.6693 2.83465 5.6693 2.83465 5.6693 2.83465 C 5.6693 4.3987646 4.3987646 5.6693 2.83465 5.6693 C 2.83465 5.6693 2.83465 5.6693 2.83465 5.6693 C 1.2705355 5.6693 0 4.3987646 0 2.83465 C 0 2.83465 0 2.83465 0 2.83465 C 0 1.2705355 1.2705355 0 2.83465 0 C 2.83465 0 2.83465 0 2.83465 0 Z "/>
                                            </g>
                                        </g>
                                    </g>
                                </g>
                                <g transform="translate(25.511849999999995 46.97159071675118)">
                                    <g class="typst-group">
                                        <g>
                                            <g transform="translate(0 0)">
                                                <path class="typst-shape" fill="#ffffff" stroke="#000000" stroke-width="1.06299375" stroke-linecap="butt" stroke-linejoin="miter" stroke-miterlimit="4" d="M 2.83465 0 C 4.3987646 0 5.6693 1.2705355 5.6693 2.83465 C 5.6693 2.83465 5.6693 2.83465 5.6693 2.83465 C 5.6693 4.3987646 4.3987646 5.6693 2.83465 5.6693 C 2.83465 5.6693 2.83465 5.6693 2.83465 5.6693 C 1.2705355 5.6693 0 4.3987646 0 2.83465 C 0 2.83465 0 2.83465 0 2.83465 C 0 1.2705355 1.2705355 0 2.83465 0 C 2.83465 0 2.83465 0 2.83465 0 Z "/>
                                            </g>
                                        </g>
                                    </g>
                                </g>
                                <g transform="translate(39.6851 71.52037971785117)">
                                    <g class="typst-group">
                                        <g>
                                            <g transform="translate(0 0)">
                                                <path class="typst-shape" fill="#ffffff" stroke="#000000" stroke-width="1.06299375" stroke-linecap="butt" stroke-linejoin="miter" stroke-miterlimit="4" d="M 2.83465 0 C 4.3987646 0 5.6693 1.2705355 5.6693 2.83465 C 5.6693 2.83465 5.6693 2.83465 5.6693 2.83465 C 5.6693 4.3987646 4.3987646 5.6693 2.83465 5.6693 C 2.83465 5.6693 2.83465 5.6693 2.83465 5.6693 C 1.2705355 5.6693 0 4.3987646 0 2.83465 C 0 2.83465 0 2.83465 0 2.83465 C 0 1.2705355 1.2705355 0 2.83465 0 C 2.83465 0 2.83465 0 2.83465 0 Z "/>
                                            </g>
                                        </g>
                                    </g>
                                </g>
                                <g transform="translate(29.24005806577183 61.07533778362301)">
                                    <g class="typst-group">
                                        <g>
                                            <g transform="translate(0 0)">
                                                <path class="typst-shape" fill="#ffffff" stroke="#000000" stroke-width="1.06299375" stroke-linecap="butt" stroke-linejoin="miter" stroke-miterlimit="4" d="M 2.1259875 5.8083057 C 2.1259875 5.8083057 5.8083057 3.6823184 5.8083057 3.6823184 C 5.8083057 3.6823184 3.6823184 0 3.6823184 0 C 3.6823184 0 0 2.1259875 0 2.1259875 C 0 2.1259875 0 2.1259875 0 2.1259875 C 0 2.1259875 2.1259875 5.8083057 2.1259875 5.8083057 C 2.1259875 5.8083057 2.1259875 5.8083057 2.1259875 5.8083057 Z "/>
                                            </g>
                                        </g>
                                    </g>
                                </g>
                                <g transform="translate(75.118225 83.79477450186617)">
                                    <g class="typst-group">
                                        <g>
                                            <g transform="translate(0 0)">
                                                <path class="typst-shape" fill="#000000" stroke="#000000" stroke-width="1.06299375" stroke-linecap="butt" stroke-linejoin="miter" stroke-miterlimit="4" d="M 2.83465 0 C 4.3987646 0 5.6693 1.2705355 5.6693 2.83465 C 5.6693 2.83465 5.6693 2.83465 5.6693 2.83465 C 5.6693 4.3987646 4.3987646 5.6693 2.83465 5.6693 C 2.83465 5.6693 2.83465 5.6693 2.83465 5.6693 C 1.2705355 5.6693 0 4.3987646 0 2.83465 C 0 2.83465 0 2.83465 0 2.83465 C 0 1.2705355 1.2705355 0 2.83465 0 C 2.83465 0 2.83465 0 2.83465 0 Z "/>
                                            </g>
                                        </g>
                                    </g>
                                </g>
                                <g transform="translate(96.37809999999999 46.97159071675118)">
                                    <g class="typst-group">
                                        <g>
                                            <g transform="translate(0 0)">
                                                <path class="typst-shape" fill="#000000" stroke="#000000" stroke-width="1.06299375" stroke-linecap="butt" stroke-linejoin="miter" stroke-miterlimit="4" d="M 2.83465 0 C 4.3987646 0 5.6693 1.2705355 5.6693 2.83465 C 5.6693 2.83465 5.6693 2.83465 5.6693 2.83465 C 5.6693 4.3987646 4.3987646 5.6693 2.83465 5.6693 C 2.83465 5.6693 2.83465 5.6693 2.83465 5.6693 C 1.2705355 5.6693 0 4.3987646 0 2.83465 C 0 2.83465 0 2.83465 0 2.83465 C 0 1.2705355 1.2705355 0 2.83465 0 C 2.83465 0 2.83465 0 2.83465 0 Z "/>
                                            </g>
                                        </g>
                                    </g>
                                </g>
                                <g transform="translate(90.61203085198683 68.16196278362301)">
                                    <g class="typst-group">
                                        <g>
                                            <g transform="translate(0 0)">
                                                <path class="typst-shape" fill="#ffffff" stroke="#000000" stroke-width="1.06299375" stroke-linecap="butt" stroke-linejoin="miter" stroke-miterlimit="4" d="M 5.8083057 2.1259875 C 5.8083057 2.1259875 2.1259875 0 2.1259875 0 C 2.1259875 0 0 3.6823184 0 3.6823184 C 0 3.6823184 3.6823184 5.8083057 3.6823184 5.8083057 C 3.6823184 5.8083057 3.6823184 5.8083057 3.6823184 5.8083057 C 3.6823184 5.8083057 5.8083057 2.1259875 5.8083057 2.1259875 C 5.8083057 2.1259875 5.8083057 2.1259875 5.8083057 2.1259875 Z "/>
                                            </g>
                                        </g>
                                    </g>
                                </g>
                                <g transform="translate(32.59847499999999 10.148406931636181)">
                                    <g class="typst-group">
                                        <g>
                                            <g transform="translate(0 0)">
                                                <path class="typst-shape" fill="#000000" stroke="#000000" stroke-width="1.06299375" stroke-linecap="butt" stroke-linejoin="miter" stroke-miterlimit="4" d="M 2.83465 0 C 4.3987646 0 5.6693 1.2705355 5.6693 2.83465 C 5.6693 2.83465 5.6693 2.83465 5.6693 2.83465 C 5.6693 4.3987646 4.3987646 5.6693 2.83465 5.6693 C 2.83465 5.6693 2.83465 5.6693 2.83465 5.6693 C 1.2705355 5.6693 0 4.3987646 0 2.83465 C 0 2.83465 0 2.83465 0 2.83465 C 0 1.2705355 1.2705355 0 2.83465 0 C 2.83465 0 2.83465 0 2.83465 0 Z "/>
                                            </g>
                                        </g>
                                    </g>
                                </g>
                                <g transform="translate(11.338599999999998 46.97159071675118)">
                                    <g class="typst-group">
                                        <g>
                                            <g transform="translate(0 0)">
                                                <path class="typst-shape" fill="#000000" stroke="#000000" stroke-width="1.06299375" stroke-linecap="butt" stroke-linejoin="miter" stroke-miterlimit="4" d="M 2.83465 0 C 4.3987646 0 5.6693 1.2705355 5.6693 2.83465 C 5.6693 2.83465 5.6693 2.83465 5.6693 2.83465 C 5.6693 4.3987646 4.3987646 5.6693 2.83465 5.6693 C 2.83465 5.6693 2.83465 5.6693 2.83465 5.6693 C 1.2705355 5.6693 0 4.3987646 0 2.83465 C 0 2.83465 0 2.83465 0 2.83465 C 0 1.2705355 1.2705355 0 2.83465 0 C 2.83465 0 2.83465 0 2.83465 0 Z "/>
                                            </g>
                                        </g>
                                    </g>
                                </g>
                                <g transform="translate(16.965663281756832 25.642212783623012)">
                                    <g class="typst-group">
                                        <g>
                                            <g transform="translate(0 0)">
                                                <path class="typst-shape" fill="#ffffff" stroke="#000000" stroke-width="1.06299375" stroke-linecap="butt" stroke-linejoin="miter" stroke-miterlimit="4" d="M 0 3.6823184 C 0 3.6823184 3.6823184 5.8083057 3.6823184 5.8083057 C 3.6823184 5.8083057 5.8083057 2.1259875 5.8083057 2.1259875 C 5.8083057 2.1259875 2.1259875 0 2.1259875 0 C 2.1259875 0 2.1259875 0 2.1259875 0 C 2.1259875 0 0 3.6823184 0 3.6823184 C 0 3.6823184 0 3.6823184 0 3.6823184 Z "/>
                                            </g>
                                        </g>
                                    </g>
                                </g>
                            </g>
                        </g>
                    </g>
                </g>
            </g>
        </g>
    </g>
</svg>
